<?xml version="1.0" encoding="UTF-8"?>
<!DOCTYPE svg PUBLIC "-//W3C//DTD SVG 1.0//EN" "http://www.w3.org/TR/2001/REC-SVG-20010904/DTD/svg10.dtd">
<!-- Creator: CorelDRAW -->
<svg xmlns="http://www.w3.org/2000/svg" xml:space="preserve" width="1.70629in" height="0.355047in" version="1.0" style="shape-rendering:geometricPrecision; text-rendering:geometricPrecision; image-rendering:optimizeQuality; fill-rule:evenodd; clip-rule:evenodd"
viewBox="0 0 1706.02 354.99"
 xmlns:xlink="http://www.w3.org/1999/xlink"
 xmlns:xodm="http://www.corel.com/coreldraw/odm/2003">
 <defs>
  <style type="text/css">
   <![CDATA[
    .fil0 {fill:#373435}
   ]]>
  </style>
 </defs>
 <g id="Layer_x0020_1">
  <metadata id="CorelCorpID_0Corel-Layer"/>
  <path class="fil0" d="M660.01 234.29c-3.16,5.79 -7.1,11.31 -11.31,15.25 -12.36,11.31 -29.98,13.93 -46.28,13.93 -5,0 -9.99,-0.26 -14.99,-0.79 -7.1,-0.53 -13.93,-1.31 -21.04,-2.37l-5 -0.53 -2.89 -25.51 -466.21 0c-54.96,0 -92.3,-44.97 -92.3,-100.19 0,-55.22 37.34,-100.19 92.3,-100.19l2.37 0 59.43 -33.92 0 33.92 835.13 0 63.64 -33.66 0 33.66 287.14 0 62.84 -33.66 0 33.66 7.89 0 0 -0.26 65.47 -32.87 0 33.4 135.16 0c54.96,0 94.66,44.97 94.66,100.19 0,54.96 -39.44,100.19 -94.66,100.19l-951.62 0 0.26 -0.26zm946.36 120.17l-8.42 0 -8.94 -25.24c0,0 0,-1.58 0,-5l7.89 0 0 -17.09 -10.25 0 0 47.33 -8.15 0 0 -54.17 22.09 0c2.89,0 4.21,1.31 4.21,4.21l0 21.04c0,2.1 -0.79,3.16 -2.37,3.94 -0.79,0.26 -2.63,0.53 -5.26,0.53l8.94 24.72 0.26 -0.26zm-59.95 0l-22.61 0 0 -54.17 22.35 0 0 7.1 -14.2 0 0 15.78 12.36 0 0 7.1 -12.36 0 0 17.09 14.46 0 0 7.1 0 -0zm-54.7 -23.93c0,2.89 -1.31,4.21 -4.21,4.21l-13.93 0 0 19.72 -8.15 0 0 -54.17 21.82 0c2.89,0 4.21,1.31 4.21,4.21l0 26.03 0.26 0zm-8.15 -2.63l0 -20.77 -9.99 0 0 20.77 9.99 0zm-51.01 22.35c0,2.89 -1.31,4.21 -4.21,4.21l-18.67 0c-2.89,0 -4.21,-1.31 -4.21,-4.21l0 -45.75c0,-2.89 1.31,-4.21 4.21,-4.21l18.67 0c2.89,0 4.21,1.31 4.21,4.21l0 45.75zm-8.15 -2.63l0 -40.23 -11.05 0 0 40.23 11.05 0zm-50.75 6.84l-21.3 0 0 -54.17 8.15 0 0 47.07 13.15 0 0 7.36 0 -0.26zm-53.38 0l-22.61 0 0 -54.17 22.35 0 0 7.1 -14.2 0 0 15.78 12.36 0 0 7.1 -12.36 0 0 17.09 14.46 0 0 7.1 0 -0zm-53.64 -54.17l-10.25 54.17 -8.15 0 -10.52 -54.17 8.15 0 6.05 37.08c0,1.05 0,2.63 0.26,4.73 0,-1.05 0,-2.63 0.26,-4.73l6.05 -37.08 8.15 0zm-59.16 54.17l-22.61 0 0 -54.17 22.35 0 0 7.1 -14.2 0 0 15.78 12.36 0 0 7.1 -12.36 0 0 17.09 14.46 0 0 7.1 0 -0zm-55.22 -10.25c0,3.16 -1.05,5.79 -2.89,7.36 -1.84,1.84 -4.47,2.63 -7.62,2.63l-16.56 0 0 -54.17 16.56 0c3.16,0 5.79,0.79 7.62,2.63 1.84,1.84 2.89,4.47 2.89,7.62l0 33.66 0 0.27zm-8.15 -1.31l0 -31.03c0,-3.16 -1.58,-4.47 -4.73,-4.47l-6.05 0 0 40.23 5.79 0c3.16,0 5,-1.58 5,-4.73l-0 0zm-65.74 -12.36c0,2.89 -1.31,4.21 -4.21,4.21l-13.93 0 0 19.72 -8.15 0 0 -54.17 21.82 0c2.89,0 4.21,1.31 4.21,4.21l0 26.03 0.26 0zm-8.15 -2.63l0 -20.77 -9.99 0 0 20.77 9.99 0zm-50.22 2.63c0,2.89 -1.31,4.21 -4.21,4.21l-13.93 0 0 19.72 -8.15 0 0 -54.17 21.82 0c2.89,0 4.21,1.31 4.21,4.21l0 26.03 0.26 0zm-8.15 -2.63l0 -20.77 -9.99 0 0 20.77 9.99 0zm-49.17 26.56l-7.89 0 -1.58 -10.25 -10.25 0 -1.58 10.25 -7.89 0 0 -0.26 10.52 -54.17 8.42 0 10.52 54.17 -0.26 0.26zm-10.78 -17.36l-3.94 -24.45 -3.94 24.45 7.89 0zm-63.37 17.36l-22.61 0 0 -54.17 22.35 0 0 7.1 -14.2 0 0 15.78 12.36 0 0 7.1 -12.36 0 0 17.09 14.46 0 0 7.1 0 -0zm-53.91 0l-21.3 0 0 -54.17 8.15 0 0 47.07 13.15 0 0 7.36 0 -0.26zm-54.43 0l-8.15 0 0 -54.17 8.15 0 0 54.17zm-41.28 -4.21c0,2.89 -1.31,4.21 -4.21,4.21l-22.35 0 0 -54.17 22.09 0c2.63,0 4.21,1.31 4.21,4.21l0 14.46c0,1.84 -0.53,3.42 -1.84,4.47 -0.26,0.26 -1.58,1.05 -4.21,2.63 2.63,1.58 4.21,2.63 4.47,2.89 1.31,1.05 1.84,2.63 1.84,4.47l0 16.83 0 -0zm-8.42 -29.98l0 -13.15 -10.25 0 0 15.78 6.31 0 3.94 -2.89 0 0.26zm0.26 27.61l0 -15.51 -3.94 -2.63 -6.31 0 0 18.14 10.25 0zm-51.54 2.63c0,2.89 -1.31,4.21 -4.21,4.21l-18.67 0c-2.89,0 -4.21,-1.31 -4.21,-4.21l0 -45.75c0,-2.89 1.31,-4.21 4.21,-4.21l18.67 0c2.89,0 4.21,1.31 4.21,4.21l0 45.75zm-8.15 -2.63l0 -40.23 -11.05 0 0 40.23 11.05 0zm-52.06 6.84l-7.89 0 0 -26.82c0,-1.31 0.26,-3.42 0.53,-5.79l-7.1 27.61 -4.21 0 -7.1 -27.61c0.26,2.63 0.53,4.47 0.53,5.79l0 26.82 -7.89 0 0 -54.17 7.62 0 8.68 29.98c0,0.26 0.26,1.05 0.26,2.37 0,-0.53 0,-1.31 0.26,-2.37l8.68 -29.98 7.62 0 0 54.17 0 0zm-78.89 -24.72l-3.94 0 0 24.72 -21.82 0c-2.89,0 -4.21,-1.31 -4.21,-4.21l0 -17.09c0,-1.84 0.53,-3.16 1.58,-4.21 1.31,-1.05 2.37,-1.84 3.68,-2.63 -1.05,-0.79 -2.37,-1.84 -3.42,-2.63 -1.05,-1.05 -1.58,-2.37 -1.58,-3.94l0 -14.99c0,-2.89 1.58,-4.21 4.21,-4.21l17.36 0c3.16,0 4.47,1.31 4.47,4.21l0 11.83 -7.89 0 0 -9.47 -10.25 0 0 13.15 3.68 2.63 18.14 0 0 6.84 -0 0zm-11.83 17.88l0 -17.88 -6.57 0 -3.68 2.63 0 15.25 10.25 0zm-64.69 6.84l-22.61 0 0 -54.17 22.35 0 0 7.1 -14.2 0 0 15.78 12.36 0 0 7.1 -12.36 0 0 17.09 14.46 0 0 7.1 0 -0zm-53.11 -47.07l-8.94 0 0 47.07 -8.15 0 0 -47.07 -8.94 0 0 -7.1 26.03 0 0 7.1zm-56.8 47.07l-8.15 0 0 -54.17 8.15 0 0 54.17zm-41.28 -4.21c0,2.89 -1.31,4.21 -4.21,4.21l-17.62 0c-2.89,0 -4.21,-1.31 -4.21,-4.21l0 -13.41 8.15 0 0 11.05 9.99 0 0 -10.52 -16.3 -15.51c-1.05,-1.05 -1.84,-2.63 -1.84,-4.21l0 -12.88c0,-2.89 1.31,-4.21 4.21,-4.21l17.62 0c2.89,0 4.21,1.31 4.21,4.21l0 12.88 -8.15 0 0 -10.25 -9.99 0 0 9.73 16.3 15.25c1.05,1.05 1.84,2.63 1.84,4.47l0 13.68 0 -0.27zm-58.9 0c0,2.89 -1.31,4.21 -4.21,4.21l-22.35 0 0 -54.17 22.09 0c2.63,0 4.21,1.31 4.21,4.21l0 14.46c0,1.84 -0.53,3.42 -1.84,4.47 -0.26,0.26 -1.58,1.05 -4.21,2.63 2.63,1.58 4.21,2.63 4.47,2.89 1.31,1.05 1.84,2.63 1.84,4.47l0 16.83 0 -0zm-8.41 -29.98l0 -13.15 -10.25 0 0 15.78 6.31 0 3.94 -2.89 0 0.26zm0.26 27.61l0 -15.51 -3.94 -2.63 -6.31 0 0 18.14 10.25 0zm-50.48 6.84l-22.61 0 0 -54.17 22.35 0 0 7.1 -14.2 0 0 15.78 12.36 0 0 7.1 -12.36 0 0 17.09 14.46 0 0 7.1 0 -0zm-53.64 -54.17l-7.89 54.17 -7.89 0 -4.73 -30.77c0,-1.05 0,-2.63 -0.26,-5 0,1.05 0,2.63 -0.26,5l-4.73 30.77 -7.89 0 -7.89 -54.17 8.15 0 4.21 32.08c0,1.05 0.26,2.63 0.26,5 0,-1.05 0,-2.63 0.26,-5l4.73 -32.08 6.57 0 4.73 32.08c0,1.05 0.26,2.63 0.26,5 0,-1.05 0,-2.63 0.26,-5l4.21 -32.08 8.15 0 -0.27 0zm-46.81 -258.48l53.38 -30.5 0 65.74c5.26,-5.52 11.31,-9.73 17.88,-12.36 6.57,-2.63 14.2,-4.21 22.35,-4.21 16.83,0 30.77,6.05 41.54,18.14 11.05,12.1 16.56,29.45 16.56,52.06 0,14.99 -2.63,28.4 -7.62,39.97 -5,11.57 -11.83,19.99 -20.77,25.77 -8.94,5.79 -18.67,8.42 -29.45,8.42 -9.2,0 -17.88,-2.1 -25.51,-6.05 -5.79,-3.16 -12.1,-8.94 -18.93,-17.62l0 20.51 -49.43 0 0 -159.87 0.01 0zm616.36 121.48l52.33 -4.73c2.1,6.31 5.26,10.52 9.2,13.41 3.94,2.63 9.2,3.94 15.51,3.94 7.1,0 12.62,-1.58 16.56,-4.47 3.16,-2.1 4.47,-5 4.47,-8.42 0,-3.68 -2.1,-6.84 -6.05,-8.94 -2.89,-1.58 -10.52,-3.42 -22.61,-5.52 -18.41,-3.16 -31.03,-6.05 -38.13,-8.94 -7.1,-2.63 -13.15,-7.36 -18.14,-13.93 -5,-6.57 -7.36,-13.93 -7.36,-22.35 0,-9.2 2.63,-16.83 7.89,-23.4 5.26,-6.57 12.62,-11.57 21.82,-14.73 9.2,-3.16 21.56,-5 37.34,-5 16.3,0 28.4,1.31 36.29,3.68 7.36,2.37 13.68,6.05 18.93,11.05 -0.79,1.05 -1.84,1.84 -2.63,2.89 -5,6.31 -7.89,13.68 -8.42,21.56l-25.24 2.37c-1.31,-4.47 -3.42,-7.62 -6.57,-9.73 -4.21,-2.63 -9.2,-4.21 -14.99,-4.21 -6.05,0 -10.25,1.05 -12.88,3.16 -2.63,2.1 -4.21,4.73 -4.21,7.62 0,3.42 1.84,6.05 5.26,7.62 3.42,1.84 11.05,3.42 22.61,4.73 17.62,2.1 30.5,4.73 39.18,8.42l0 0c1.31,2.63 2.63,5.26 4.47,7.62 5,6.57 11.31,11.57 18.93,14.73 1.84,4.47 2.89,9.47 2.89,14.46l0 0.53 -36.29 3.42 0.79 3.42c2.63,11.31 7.89,20.77 16.3,28.4 -3.16,2.1 -6.84,4.21 -10.78,5.79 -10.25,4.47 -24.45,6.57 -42.34,6.57 -25.24,0 -43.12,-3.68 -53.91,-10.78 -10.78,-7.1 -17.62,-17.36 -20.51,-30.77l0.26 0.53zm-154.88 -99.66l55.75 0 28.4 91.77 26.3 -91.77 52.06 0 -54.69 147.52c-6.31,16.83 -12.62,28.14 -18.93,33.92 -9.2,8.42 -23.14,12.36 -41.81,12.36 -7.62,0 -19.46,-1.05 -35.23,-3.16l-4.21 -36.81c7.62,2.37 16.04,3.68 25.51,3.68 6.31,0 11.31,-1.31 15.25,-4.21 3.94,-2.89 7.1,-7.89 9.73,-14.99l-57.85 -138.05 -0.26 -0.26zm-143.04 99.66l52.33 -4.73c2.1,6.31 5.26,10.52 9.2,13.41 3.94,2.63 9.2,3.94 15.51,3.94 7.1,0 12.62,-1.58 16.56,-4.47 3.16,-2.1 4.47,-5 4.47,-8.42 0,-3.68 -2.1,-6.84 -6.05,-8.94 -2.89,-1.58 -10.52,-3.42 -22.61,-5.52 -18.41,-3.16 -31.03,-6.05 -38.13,-8.94 -7.1,-2.63 -13.15,-7.36 -18.14,-13.93 -4.73,-6.57 -7.36,-13.93 -7.36,-22.35 0,-9.2 2.63,-16.83 7.89,-23.4 5.26,-6.57 12.62,-11.57 21.82,-14.73 9.2,-3.16 21.56,-5 37.34,-5 16.3,0 28.4,1.31 36.29,3.68 7.89,2.63 14.46,6.31 19.72,11.83 5.26,5.26 9.47,12.36 13.15,21.56l-49.96 4.73c-1.31,-4.47 -3.42,-7.62 -6.57,-9.73 -4.21,-2.63 -9.2,-4.21 -14.99,-4.21 -6.05,0 -10.25,1.05 -12.88,3.16 -2.63,2.1 -3.94,4.73 -3.94,7.62 0,3.42 1.84,6.05 5.26,7.62 3.42,1.84 11.05,3.42 22.61,4.73 17.62,2.1 30.5,4.73 39.18,8.42 8.68,3.42 14.99,8.68 19.72,15.25 4.47,6.57 6.84,13.93 6.84,21.82 0,7.89 -2.37,15.78 -7.1,23.14 -4.73,7.62 -12.36,13.41 -22.61,17.88 -10.25,4.47 -24.45,6.57 -42.34,6.57 -25.24,0 -43.12,-3.68 -53.91,-10.78 -10.78,-7.1 -17.62,-17.36 -20.51,-30.77l-0.79 0.54zm-106.23 -54.96l-50.49 -5.26c1.84,-8.94 4.73,-15.78 8.15,-20.77 3.68,-5 8.68,-9.47 15.51,-13.15 4.73,-2.63 11.57,-4.73 19.99,-6.31 8.42,-1.58 17.62,-2.1 27.61,-2.1 15.78,0 28.4,0.79 38.13,2.63 9.47,1.84 17.62,5.52 23.93,11.05 4.47,3.94 8.15,9.47 10.52,16.56 2.63,7.1 3.94,13.93 3.94,20.51l0 61.01c0,6.57 0.53,11.57 1.31,15.25 0.79,3.68 2.63,8.42 5.26,14.2l-49.43 0c-2.1,-3.42 -3.16,-6.31 -3.94,-8.15 -0.53,-1.84 -1.31,-4.73 -1.84,-8.68 -6.84,6.57 -13.68,11.31 -20.77,14.2 -9.47,3.68 -20.25,5.79 -32.61,5.79 -16.56,0 -28.92,-3.94 -37.34,-11.57 -8.42,-7.62 -12.88,-17.09 -12.88,-28.14 0,-10.52 3.16,-19.19 9.2,-26.03 6.05,-6.84 17.62,-11.83 33.92,-15.25 19.72,-3.94 32.61,-6.84 38.66,-8.42 5.79,-1.58 12.1,-3.68 18.67,-6.31 0,-6.57 -1.31,-11.05 -3.94,-13.68 -2.63,-2.63 -7.36,-3.94 -14.2,-3.94 -8.68,0 -14.99,1.31 -19.46,4.21 -3.42,2.1 -6.05,6.31 -8.15,12.36l0.26 -0zm45.75 27.61c-7.36,2.63 -14.73,5 -22.88,6.84 -10.78,2.89 -17.62,5.79 -20.51,8.42 -2.89,2.89 -4.47,6.05 -4.47,9.73 0,4.21 1.58,7.62 4.47,10.25 2.89,2.63 7.1,3.94 12.88,3.94 5.79,0 11.31,-1.58 16.56,-4.47 5,-2.89 8.68,-6.31 10.78,-10.52 2.1,-4.21 3.16,-9.47 3.16,-16.3l0 -8.42 0 0.53zm-204.84 -3.94c0,11.83 2.1,20.51 6.57,25.77 4.47,5.26 9.99,7.89 16.83,7.89 6.31,0 11.57,-2.63 15.78,-7.89 4.21,-5.26 6.31,-14.2 6.31,-26.56 0,-11.05 -2.1,-18.93 -6.31,-24.19 -4.21,-5.26 -9.2,-7.62 -15.25,-7.62 -7.1,0 -13.15,2.63 -17.62,7.89 -4.47,5.26 -6.84,13.41 -6.84,24.19l0.53 0.53zm1249.28 -120.96l0 190.38 -49.43 0 0 -20.51c-6.84,8.68 -13.15,14.46 -18.93,17.62 -7.62,3.94 -16.04,6.05 -25.51,6.05 -18.67,0 -33.13,-7.1 -43.12,-21.56 -9.99,-14.2 -14.73,-31.82 -14.73,-52.06 0,-22.88 5.52,-40.49 16.56,-52.59 11.05,-12.1 24.72,-18.14 41.81,-18.14 8.15,0 15.78,1.31 22.35,4.21 6.84,2.89 12.62,6.84 17.88,12.36l0 -37.08 53.38 -28.66 -0.26 -0zm-571.92 151.98l52.33 -4.73c2.1,6.31 5.26,10.52 9.2,13.41 3.94,2.63 9.2,3.94 15.51,3.94 7.1,0 12.62,-1.58 16.56,-4.47 3.16,-2.1 4.47,-5 4.47,-8.42 0,-3.68 -2.1,-6.84 -6.05,-8.94 -2.89,-1.58 -10.52,-3.42 -22.61,-5.52 -18.41,-3.16 -31.03,-6.05 -38.13,-8.94 -7.1,-2.63 -13.15,-7.36 -18.14,-13.93 -4.73,-6.57 -7.36,-13.93 -7.36,-22.35 0,-9.2 2.63,-16.83 7.89,-23.4 5.26,-6.57 12.62,-11.57 21.82,-14.73 9.2,-3.16 21.56,-5 37.34,-5 16.3,0 28.4,1.31 36.29,3.68 7.89,2.63 14.46,6.31 19.72,11.83 5.26,5.26 9.47,12.36 13.15,21.56l-49.96 4.73c-1.31,-4.47 -3.42,-7.62 -6.57,-9.73 -4.21,-2.63 -9.2,-4.21 -14.99,-4.21 -6.05,0 -10.25,1.05 -12.88,3.16 -2.63,2.1 -3.94,4.73 -3.94,7.62 0,3.42 1.84,6.05 5.26,7.62 3.42,1.84 11.05,3.42 22.61,4.73 17.62,2.1 30.5,4.73 39.18,8.42 8.42,3.42 15.25,8.68 19.72,15.25 4.47,6.57 6.84,13.93 6.84,21.82 0,7.89 -2.37,15.78 -7.1,23.14 -4.73,7.62 -12.36,13.41 -22.61,17.88 -10.25,4.47 -24.45,6.57 -42.34,6.57 -25.24,0 -43.12,-3.68 -53.91,-10.78 -10.78,-7.1 -17.62,-17.36 -20.51,-30.77l-0.79 0.54zm222.19 -151.98l0 52.33 28.92 0 0 38.92 -28.92 0 0 48.91c0,5.79 0.53,9.73 1.58,11.57 1.84,2.89 4.73,4.47 9.2,4.47 3.94,0 9.47,-1.05 16.3,-3.42l3.94 36.55c-13.15,2.89 -25.24,4.21 -36.55,4.21 -13.15,0 -22.88,-1.58 -29.19,-5 -6.31,-3.42 -10.78,-8.42 -13.93,-15.25 -2.89,-6.84 -4.47,-18.14 -4.47,-33.4l0 -48.38 -19.46 0 0 -38.92 19.46 0 0 -24.45 52.85 -27.87 0.26 -0.27zm185.9 190.38l-49.43 0 0 -22.35c-7.36,9.2 -14.73,15.78 -22.09,19.46 -7.62,3.94 -16.56,5.79 -27.61,5.79 -14.46,0 -25.77,-4.47 -34.18,-13.15 -8.15,-8.68 -12.36,-22.09 -12.36,-40.23l0 -87.83 53.12 0 0 75.99c0,8.68 1.58,14.73 4.73,18.41 3.16,3.68 7.62,5.52 13.41,5.52 6.31,0 11.31,-2.37 15.51,-7.36 3.94,-5 6.05,-13.68 6.05,-26.3l0 -66.53 52.85 0 0 138.05 0 0.52zm184.59 -163.82l52.85 -26.56 0 36.03 -52.85 0 0 -9.2 0 -0.26zm0 25.77l52.85 0 0 138.05 -52.85 0 0 -138.05zm66.79 69.42c0,-21.04 7.1,-38.39 21.3,-52.06 14.2,-13.68 33.4,-20.51 57.32,-20.51 27.61,0 48.38,7.89 62.58,23.93 11.31,12.88 17.09,28.92 17.09,47.86 0,21.3 -7.1,38.66 -21.04,52.33 -13.93,13.68 -33.4,20.25 -58.38,20.25 -22.09,0 -39.97,-5.52 -53.64,-16.83 -16.83,-13.93 -25.24,-32.34 -25.24,-54.96l0 -0.01zm52.85 0c0,12.36 2.37,21.56 7.36,27.35 5,5.79 11.05,8.94 18.67,8.94 7.62,0 13.68,-2.89 18.67,-8.68 5,-5.79 7.36,-15.25 7.36,-28.14 0,-12.1 -2.37,-21.04 -7.36,-26.82 -5,-5.79 -11.05,-8.68 -18.14,-8.68 -7.62,0 -13.93,2.89 -18.93,8.94 -5,6.05 -7.36,14.99 -7.36,27.08l-0.26 0zm-193.53 -0.79c0,-10.78 -2.37,-18.93 -6.84,-24.19 -4.47,-5.26 -10.25,-7.89 -17.36,-7.89 -6.05,0 -11.31,2.63 -15.51,7.62 -4.21,5 -6.31,13.68 -6.31,25.77 0,11.31 2.1,19.46 6.31,24.72 4.21,5.26 9.47,7.89 15.78,7.89 6.84,0 12.36,-2.63 16.83,-7.89 4.47,-5.26 6.84,-13.93 6.84,-26.03l0.26 0z"/>
 </g>
</svg>
